<svg xmlns="http://www.w3.org/2000/svg" width="512" height="512" viewBox="0 0 512 512" version="1.1">
	<path d="M 227.833 0.851 C 227.650 1.319, 222.775 2.425, 217 3.308 C 202.432 5.536, 196.511 6.908, 175.500 12.921 C 166.069 15.620, 134.585 30.178, 125.500 36.042 C 123.850 37.107, 121.825 38.293, 121 38.677 C 118.741 39.730, 103.786 50.225, 98.067 54.771 C 91.932 59.648, 77.696 72.374, 72.536 77.595 C 45.735 104.711, 21.609 145.317, 11.693 180 C 10.828 183.025, 9.453 187.750, 8.638 190.500 C 7.822 193.250, 6.857 197.300, 6.493 199.500 C 6.129 201.700, 5.430 204.850, 4.938 206.500 C 4.447 208.150, 3.569 213.775, 2.988 219 C 2.406 224.225, 1.496 228.650, 0.965 228.833 C -0.307 229.273, -0.344 284, 0.928 284 C 1.438 284, 2.127 286.587, 2.459 289.750 C 3.556 300.219, 9.088 325.619, 12.097 334 C 19.427 354.421, 30.802 379.761, 33.728 382.189 C 34.428 382.770, 35 383.774, 35 384.421 C 35 385.067, 37.899 389.962, 41.442 395.299 C 56.233 417.576, 71.883 435.406, 89.457 450 C 93.761 453.575, 97.995 457.288, 98.864 458.250 C 99.733 459.212, 100.964 460, 101.600 460 C 102.235 460, 103.293 460.648, 103.951 461.441 C 105.721 463.574, 119.062 472.457, 126.771 476.636 C 130.472 478.642, 134.175 480.817, 135 481.470 C 136.335 482.527, 139.767 484.211, 154.610 491.094 C 156.870 492.142, 159.367 493, 160.160 493 C 160.952 493, 162.028 493.418, 162.550 493.930 C 163.489 494.849, 169.677 497.289, 175.500 499.037 C 194.538 504.752, 207.498 507.602, 223.250 509.539 C 225.863 509.860, 228 510.545, 228 511.061 C 228 512.268, 283.710 512.325, 284.167 511.119 C 284.350 510.634, 289.225 509.545, 295 508.698 C 300.775 507.851, 308.425 506.467, 312 505.623 C 325.955 502.325, 330.631 501.113, 334 499.917 C 351.627 493.660, 351.050 493.904, 370.035 484.618 C 391.922 473.911, 406.062 464.406, 425.950 447.029 C 457.819 419.183, 482.024 383.332, 497.367 341.250 C 498.650 337.731, 499.608 334.553, 503.472 321 C 505.865 312.605, 508.452 298.832, 509.529 288.750 C 509.960 284.721, 510.571 283, 511.572 283 C 512.775 283, 513 278.662, 513 255.500 C 513 231.722, 512.797 228, 511.500 228 C 510.675 228, 509.980 227.438, 509.956 226.750 C 509.655 218.175, 503.351 187.605, 499.903 178 C 492.573 157.579, 481.198 132.239, 478.272 129.811 C 477.572 129.230, 477 128.209, 477 127.542 C 477 126.075, 466.350 109.902, 459.653 101.199 C 447.563 85.487, 435.672 72.931, 422.531 62 C 418.233 58.425, 414.005 54.712, 413.136 53.750 C 412.267 52.788, 411.036 52, 410.400 52 C 409.765 52, 408.681 51.320, 407.991 50.490 C 406.089 48.197, 390.938 38.178, 386.094 36.008 C 384.770 35.416, 381.845 33.689, 379.594 32.172 C 377.342 30.655, 373.475 28.458, 371 27.291 C 358.268 21.287, 352.957 19, 351.742 19 C 351.004 19, 349.973 18.577, 349.450 18.059 C 348.374 16.994, 332.308 11.464, 324 9.300 C 311.546 6.055, 300.407 3.894, 288.750 2.461 C 286.137 2.140, 284 1.455, 284 0.939 C 284 -0.248, 228.298 -0.335, 227.833 0.851 M 0.440 256.500 C 0.440 271.900, 0.579 278.060, 0.748 270.189 C 0.917 262.319, 0.917 249.719, 0.747 242.189 C 0.578 234.660, 0.439 241.100, 0.440 256.500" stroke="none" fill="black" fill-rule="evenodd"/>
</svg>